<?xml version="1.0" standalone="no"?>
<!DOCTYPE svg PUBLIC "-//W3C//DTD SVG 20010904//EN"
 "http://www.w3.org/TR/2001/REC-SVG-20010904/DTD/svg10.dtd">
<svg version="1.0" xmlns="http://www.w3.org/2000/svg"
 width="300.000000pt" height="300.000000pt" viewBox="0 0 300.000000 300.000000"
 preserveAspectRatio="xMidYMid meet">
<metadata>
Created by potrace 1.10, written by Peter Selinger 2001-2011
</metadata>
<g transform="translate(0.000000,300.000000) scale(0.100000,-0.100000)"
fill="#000000" stroke="none">
<path d="M1126 2653 c-428 -4 -406 1 -406 -94 l0 -57 68 -7 c37 -3 85 -12 107
-18 36 -11 40 -16 47 -52 9 -51 10 -1426 1 -1490 -5 -41 -10 -49 -37 -60 -17
-7 -67 -16 -111 -20 l-80 -7 3 -57 c6 -96 -16 -91 387 -91 406 0 385 -5 385
92 l0 55 -64 7 c-101 10 -123 21 -130 64 -3 20 -6 167 -6 325 l0 288 81 -3 81
-3 252 -412 251 -412 251 -1 c292 0 284 -2 284 92 l0 55 -86 7 c-47 4 -97 12
-110 18 -35 16 -103 109 -322 442 l-190 289 57 28 c130 66 219 164 268 295 31
83 43 263 24 357 -27 129 -122 251 -234 303 -142 64 -221 71 -771 67z m680
-75 c203 -69 294 -202 294 -432 0 -216 -85 -371 -256 -467 -74 -42 -97 -70
-85 -102 15 -40 413 -636 459 -688 49 -54 76 -67 162 -77 53 -6 65 -11 68 -26
8 -41 -20 -46 -243 -46 -154 0 -215 3 -227 13 -9 6 -109 165 -223 352 -268
440 -264 433 -288 450 -14 10 -46 15 -93 15 -57 0 -77 -4 -98 -21 l-26 -20 0
-300 c0 -377 3 -386 131 -412 69 -14 89 -38 53 -64 -28 -20 -647 -19 -664 2
-27 32 -8 49 67 62 40 6 83 19 96 28 53 34 52 23 52 835 0 733 -1 756 -20 787
-21 35 -63 55 -150 70 -38 6 -51 13 -54 27 -8 46 5 47 499 44 l465 -3 81 -27z"/>
<path d="M1271 2504 c-20 -26 -21 -37 -21 -416 l0 -390 29 -29 c33 -33 75 -37
189 -19 179 29 291 118 346 275 27 76 33 253 12 348 -42 187 -154 257 -412
257 -120 0 -123 0 -143 -26z m364 -43 c127 -57 173 -162 163 -378 -6 -135 -32
-206 -97 -276 -73 -79 -157 -111 -318 -123 l-93 -7 0 408 0 407 148 -4 c125
-4 155 -8 197 -27z"/>
</g>
</svg>
